<?xml version="1.0" encoding="UTF-8" standalone="no"?>
<!DOCTYPE svg PUBLIC "-//W3C//DTD SVG 1.1//EN" "http://www.w3.org/Graphics/SVG/1.1/DTD/svg11.dtd">
<svg width="100%" height="100%" viewBox="0 0 1024 512" version="1.1" xmlns="http://www.w3.org/2000/svg" xmlns:xlink="http://www.w3.org/1999/xlink" xml:space="preserve" xmlns:serif="http://www.serif.com/" style="fill-rule:evenodd;clip-rule:evenodd;stroke-linejoin:round;stroke-miterlimit:1.41421;">
    <g transform="matrix(0.943022,0,0,0.943022,34.0362,111.725)">
        <circle cx="133.039" cy="169.959" r="131.593" style="fill:rgb(215,243,254);"/>
    </g>
    <g transform="matrix(18.4088,0,0,18.4088,-4093.39,-4601.33)">
        <text x="227.681px" y="266.846px" style="font-family:'UDDigiKyokashoNP-R', 'UD Digi Kyokasho NP-R', serif;font-size:12px;fill:rgb(250,114,104);">polyglot</text>
    </g>
    <g transform="matrix(1.35234,0,0,1.31671,-116.291,-84.829)">
        <clipPath id="_clip1">
            <ellipse cx="203.932" cy="271.001" rx="91.763" ry="94.246"/>
        </clipPath>
        <g clip-path="url(#_clip1)">
            <path d="M208.341,241.85L208.86,241.852L209.38,241.854L209.9,241.858L210.422,241.862L210.943,241.868L211.466,241.875L211.989,241.883L212.512,241.892L213.036,241.902L213.561,241.914L214.087,241.926L214.612,241.94L215.139,241.954L215.666,241.97L216.194,241.987L216.722,242.006L217.251,242.025L217.78,242.045L218.31,242.067L218.84,242.09L219.371,242.114L219.903,242.14L220.435,242.166L220.967,242.194L221.5,242.223L222.034,242.253L222.568,242.285L223.102,242.318L223.637,242.352L224.173,242.387L224.709,242.423L225.245,242.461L225.782,242.5L226.32,242.541L226.857,242.582L227.396,242.625L227.934,242.669L228.474,242.715L229.013,242.762L229.553,242.81L230.094,242.859L230.635,242.91L231.176,242.962L231.718,243.016L232.26,243.071L232.27,243.072L232.803,243.128L233.346,243.186L233.889,243.246L234.433,243.307L234.977,243.37L235.521,243.433L236.066,243.499L236.611,243.566L237.157,243.634L237.702,243.703L238.249,243.774L238.795,243.847L239.342,243.92L239.889,243.996L240.437,244.073L240.985,244.151L241.533,244.23L242.081,244.312L242.63,244.394L243.179,244.478L243.729,244.564L244.278,244.651L244.828,244.739L245.378,244.83L245.929,244.921L246.48,245.014L247.031,245.109L247.582,245.205L248.133,245.303L248.685,245.402L249.237,245.503L249.789,245.605L250.342,245.709L250.895,245.815L251.448,245.922L252.001,246.031L252.554,246.141L253.108,246.253L253.661,246.366L254.215,246.481L254.769,246.598L255.324,246.717L255.878,246.837L256.433,246.958L256.987,247.081L257.542,247.206L258.098,247.333L258.653,247.461L259.208,247.591L259.764,247.723L260.319,247.856L260.875,247.991L261.431,248.127L261.987,248.266L262.543,248.406L263.099,248.548L263.656,248.691L264.212,248.836L264.769,248.983L264.867,249.01L265.325,249.132L265.882,249.283L266.438,249.436L266.995,249.591L267.552,249.747L268.109,249.905L268.665,250.065L269.222,250.226L269.779,250.39L270.336,250.555L270.893,250.722L271.45,250.891L272.007,251.061L272.564,251.234L273.121,251.408L273.678,251.584L274.235,251.762L274.792,251.942L275.349,252.123L275.906,252.307L276.463,252.492L277.02,252.68L277.576,252.869L278.133,253.06L278.69,253.253L279.247,253.448L279.803,253.644L280.36,253.843L280.916,254.044L281.473,254.246L282.029,254.45L282.585,254.657L283.141,254.865L283.697,255.075L284.253,255.288L284.809,255.502L285.365,255.718L285.92,255.936L286.475,256.156L287.031,256.378L287.586,256.602L287.8,256.69L288.138,256.835L288.689,257.074L289.239,257.314L289.79,257.557L290.34,257.801L290.89,258.048L291.439,258.296L291.988,258.547L292.537,258.799L293.086,259.054L293.634,259.311L294.183,259.57L294.731,259.831L295.278,260.093L295.485,260.194L295.825,260.36L296.37,260.631L296.915,260.903L297.46,261.178L298.005,261.454L298.549,261.733L299.093,262.014L299.636,262.297L300.179,262.582L300.722,262.869L301.264,263.158L301.806,263.45L302.057,263.586L302.093,264.264L302.154,265.526L300.859,268.165L299.842,268.87L299.301,269.251L299.053,269.131L298.517,268.874L297.981,268.619L297.445,268.366L296.909,268.115L296.372,267.866L295.836,267.62L295.299,267.375L294.762,267.132L294.224,266.892L293.687,266.653L293.149,266.417L292.815,266.271L292.612,266.181L292.076,265.946L291.539,265.712L291.002,265.48L290.465,265.251L289.928,265.023L289.391,264.797L288.853,264.573L288.316,264.352L287.778,264.132L287.24,263.914L286.702,263.698L286.164,263.485L285.625,263.273L285.294,263.144L285.089,263.059L284.554,262.84L284.019,262.624L283.484,262.409L282.949,262.196L282.414,261.985L281.879,261.776L281.343,261.569L280.808,261.364L280.272,261.161L279.736,260.959L279.2,260.76L278.663,260.562L278.127,260.366L277.591,260.172L277.054,259.98L276.517,259.789L275.981,259.601L275.444,259.414L274.907,259.229L274.37,259.046L273.833,258.865L273.295,258.685L272.758,258.507L272.221,258.331L271.683,258.157L271.146,257.984L270.608,257.814L270.071,257.645L269.533,257.478L268.996,257.312L268.458,257.149L267.92,256.987L267.382,256.826L266.845,256.668L266.307,256.511L265.769,256.356L265.232,256.202L264.694,256.051L264.156,255.901L263.618,255.752L263.176,255.632L263.081,255.606L262.543,255.46L262.006,255.316L261.468,255.174L260.931,255.034L260.394,254.895L259.856,254.758L259.319,254.622L258.782,254.488L258.245,254.356L257.708,254.225L257.171,254.096L256.634,253.968L256.097,253.842L255.56,253.718L255.024,253.595L254.487,253.474L253.951,253.355L253.415,253.237L252.878,253.12L252.342,253.005L251.806,252.892L251.271,252.78L250.735,252.67L250.199,252.561L249.664,252.454L249.129,252.349L248.594,252.245L248.059,252.142L247.524,252.041L246.99,251.941L246.456,251.843L245.921,251.747L245.387,251.651L244.854,251.558L244.32,251.466L243.787,251.375L243.254,251.286L242.721,251.198L242.188,251.111L241.656,251.026L241.123,250.943L240.592,250.861L240.06,250.78L239.528,250.701L238.997,250.623L238.466,250.547L237.935,250.472L237.405,250.398L236.875,250.326L236.345,250.255L235.816,250.186L235.286,250.117L234.757,250.051L234.229,249.985L233.7,249.921L233.172,249.859L232.645,249.797L232.117,249.737L231.6,249.68L231.59,249.678L231.063,249.62L230.537,249.563L230.011,249.508L229.486,249.454L228.96,249.401L228.435,249.349L227.911,249.299L227.387,249.25L226.863,249.202L226.34,249.155L225.817,249.11L225.294,249.066L224.772,249.023L224.25,248.981L223.728,248.941L223.207,248.902L222.687,248.864L222.167,248.828L221.647,248.792L221.128,248.758L220.609,248.725L220.091,248.693L219.573,248.662L219.055,248.633L218.538,248.605L218.022,248.578L217.505,248.552L216.99,248.527L216.475,248.503L215.96,248.481L215.446,248.46L214.932,248.439L214.419,248.42L213.907,248.402L213.395,248.385L212.883,248.37L212.372,248.355L211.861,248.342L211.351,248.329L210.842,248.318L210.333,248.308L209.825,248.298L209.317,248.29L208.81,248.283L208.303,248.277L207.797,248.272L207.292,248.268L206.787,248.266L206.283,248.264L205.779,248.263L205.276,248.263L204.773,248.264L204.272,248.267L203.77,248.27L203.27,248.274L202.77,248.279L202.27,248.286L201.772,248.293L201.274,248.301L200.776,248.31L200.28,248.32L199.783,248.331L199.288,248.343L198.793,248.356L198.299,248.37L197.83,248.384L197.806,248.385L197.313,248.4L196.821,248.415L196.33,248.432L195.839,248.449L195.349,248.468L194.86,248.487L194.372,248.507L193.884,248.528L193.397,248.55L192.911,248.573L192.425,248.597L191.941,248.621L191.456,248.647L190.973,248.673L190.491,248.7L190.009,248.728L189.528,248.757L189.048,248.786L188.569,248.817L188.09,248.848L187.612,248.88L187.135,248.913L186.659,248.946L186.184,248.981L185.709,249.016L185.235,249.052L184.762,249.089L184.29,249.126L183.819,249.164L183.349,249.203L182.879,249.243L182.569,249.27L182.411,249.283L181.943,249.323L181.476,249.364L181.009,249.406L180.544,249.448L180.08,249.491L179.616,249.534L179.154,249.579L178.692,249.624L178.231,249.669L177.771,249.716L177.312,249.763L176.854,249.811L176.397,249.859L175.941,249.908L175.485,249.958L175.031,250.008L174.578,250.059L174.125,250.111L173.674,250.163L173.223,250.216L172.774,250.269L172.325,250.324L171.878,250.378L171.431,250.433L170.985,250.489L170.541,250.546L170.097,250.603L169.654,250.66L169.644,250.662L169.213,250.717L168.772,250.774L168.332,250.831L167.893,250.889L167.455,250.947L167.019,251.006L166.583,251.066L166.148,251.126L165.715,251.187L165.282,251.248L164.851,251.31L164.42,251.372L163.991,251.434L163.563,251.497L163.136,251.561L162.71,251.625L162.285,251.69L161.861,251.755L161.438,251.82L161.017,251.886L160.596,251.952L160.177,252.019L159.758,252.087L159.341,252.154L158.925,252.222L158.916,252.224L158.51,252.289L158.096,252.356L157.683,252.424L157.272,252.492L156.861,252.561L156.452,252.629L156.044,252.699L155.637,252.768L155.232,252.838L154.423,252.979L153.62,253.122L152.822,253.265L152.028,253.411L151.24,253.557L150.457,253.705L149.678,253.853L148.905,254.003L148.343,254.114L148.137,254.154L147.373,254.302L146.614,254.452L145.861,254.602L145.113,254.754L144.371,254.906L143.633,255.059L142.902,255.213L142.175,255.367L141.454,255.523L140.739,255.679L140.03,255.835L139.326,255.992L138.627,256.15L137.935,256.308L137.248,256.466L136.567,256.624L135.892,256.783L135.223,256.943L134.56,257.102L133.903,257.261L133.252,257.421L132.607,257.581L131.968,257.74L131.336,257.9L130.71,258.059L130.089,258.218L129.476,258.377L128.869,258.536L128.868,258.536L128.267,258.692L127.671,258.848L127.083,259.003L126.501,259.158L125.925,259.312L125.356,259.466L124.794,259.619L124.238,259.771L123.69,259.923L123.148,260.074L122.612,260.225L122.084,260.375L121.563,260.523L121.049,260.671L120.542,260.818L120.042,260.964L119.549,261.109L119.063,261.253L118.584,261.396L118.113,261.537L117.649,261.678L117.192,261.817L116.743,261.954L116.301,262.09L115.867,262.225L115.44,262.359L115.021,262.49L114.609,262.621L114.206,262.749L113.809,262.876L113.567,262.954L113.421,263.001L113.04,263.123L112.667,263.244L112.301,263.363L111.944,263.479L111.595,263.594L111.253,263.707L110.92,263.818L110.596,263.926L109.969,264.138L109.377,264.34L108.817,264.532L108.292,264.715L107.8,264.888L107.343,265.051L106.921,265.202L106.534,265.342L106.182,265.471L105.866,265.588L105.587,265.692L105.344,265.783L105.184,265.844L105.138,265.861L104.97,265.925L104.744,266.012L104.67,266.041L104.663,266.044L103.562,266.024L102.791,265.251L102.786,265.237L102.795,264.129L103.558,263.315L103.565,263.312L103.644,263.275L103.876,263.17L104.049,263.091L104.095,263.071L104.258,262.998L104.503,262.889L104.784,262.766L105.101,262.627L105.453,262.475L105.84,262.309L106.261,262.129L106.718,261.936L107.208,261.731L107.731,261.514L108.288,261.285L108.878,261.045L109.501,260.794L109.825,260.664L110.156,260.532L110.496,260.397L110.844,260.26L111.199,260.121L111.563,259.979L111.934,259.834L112.313,259.688L112.458,259.632L112.7,259.54L113.095,259.39L113.498,259.238L113.908,259.084L114.326,258.928L114.751,258.77L115.184,258.611L115.625,258.449L116.073,258.286L116.528,258.12L116.991,257.954L117.461,257.785L117.938,257.615L118.423,257.444L118.914,257.27L119.413,257.096L119.919,256.92L120.433,256.743L120.953,256.564L121.48,256.384L122.014,256.203L122.555,256.021L123.103,255.838L123.658,255.654L124.22,255.469L124.788,255.283L125.363,255.096L125.945,254.908L126.533,254.719L127.128,254.53L127.73,254.34L127.73,254.34L128.338,254.152L128.954,253.964L129.575,253.775L130.203,253.585L130.838,253.396L131.479,253.206L132.126,253.015L132.779,252.825L133.438,252.634L134.104,252.443L134.776,252.252L135.453,252.061L136.137,251.87L136.827,251.679L137.523,251.488L138.224,251.297L138.932,251.106L139.645,250.916L140.364,250.726L141.089,250.537L141.819,250.348L142.555,250.159L143.297,249.971L144.045,249.783L144.798,249.596L145.556,249.41L146.32,249.224L147.089,249.04L147.297,248.99L147.864,248.858L148.645,248.679L149.431,248.5L150.222,248.323L151.019,248.146L151.82,247.971L152.627,247.797L153.439,247.624L154.255,247.452L154.666,247.367L155.077,247.282L155.49,247.197L155.904,247.113L156.319,247.029L156.736,246.945L157.154,246.862L157.572,246.779L157.983,246.698L157.993,246.696L158.414,246.616L158.837,246.536L159.261,246.456L159.686,246.377L160.112,246.298L160.54,246.22L160.969,246.142L161.398,246.064L161.829,245.987L162.262,245.911L162.695,245.835L163.129,245.759L163.565,245.684L164.002,245.609L164.44,245.534L164.878,245.461L165.319,245.387L165.76,245.315L166.202,245.242L166.646,245.17L167.09,245.099L167.536,245.028L167.982,244.958L168.43,244.888L168.869,244.821L168.879,244.819L169.329,244.753L169.78,244.686L170.233,244.621L170.686,244.556L171.14,244.491L171.596,244.427L172.052,244.364L172.51,244.301L172.968,244.239L173.428,244.178L173.888,244.117L174.35,244.057L174.812,243.997L175.276,243.938L175.741,243.88L176.206,243.822L176.673,243.765L177.14,243.709L177.609,243.653L178.078,243.598L178.549,243.544L179.02,243.49L179.492,243.437L179.965,243.385L180.44,243.333L180.915,243.283L181.391,243.232L181.868,243.183L182.029,243.167L182.346,243.135L182.825,243.088L183.305,243.042L183.786,242.997L184.267,242.952L184.75,242.909L185.233,242.866L185.718,242.823L186.203,242.782L186.689,242.741L187.176,242.701L187.664,242.662L188.152,242.624L188.642,242.587L189.132,242.55L189.623,242.514L190.115,242.479L190.608,242.445L191.102,242.412L191.596,242.379L192.092,242.348L192.588,242.317L193.085,242.287L193.582,242.258L194.081,242.23L194.58,242.203L195.08,242.177L195.581,242.151L196.083,242.127L196.585,242.103L197.088,242.081L197.592,242.059L197.617,242.058L198.097,242.039L198.603,242.02L199.109,242.003L199.616,241.986L200.123,241.97L200.632,241.955L201.141,241.941L201.651,241.928L202.161,241.916L202.672,241.904L203.184,241.894L203.697,241.885L204.21,241.877L204.724,241.87L205.239,241.864L205.754,241.859L206.27,241.856L206.787,241.853L207.304,241.851L207.822,241.85L208.341,241.85Z" style="fill:rgb(252,175,169);"/>
        </g>
    </g>
</svg>
